<svg width="136" height="20" viewBox="0 0 136 20" fill="none" xmlns="http://www.w3.org/2000/svg">
<path d="M20 10C20 15.5228 15.5228 20 10 20C4.47715 20 0 15.5228 0 10C0 4.47715 4.47715 0 10 0C15.5228 0 20 4.47715 20 10Z" fill="#E2D610"/>
<path d="M11.1004 12.8252L8.95101 14.9747C7.86968 16.056 6.11335 16.061 5.02561 14.9899C5.02311 14.9874 5.02045 14.9849 5.01795 14.9822C5.01545 14.9797 5.01279 14.9772 5.01014 14.9747C3.93896 13.887 3.94396 12.1305 5.02545 11.0492L7.3941 8.68058C8.47543 7.59926 10.2318 7.59426 11.3195 8.66542C11.322 8.66792 11.3247 8.67042 11.3272 8.67292C11.3297 8.67542 11.3323 8.67792 11.335 8.68058C11.465 8.81263 11.5791 8.95454 11.6774 9.10379L11.0338 9.74736C10.8503 9.93084 10.5709 9.96037 10.3559 9.83722C10.3276 9.80159 10.2972 9.76721 10.2646 9.73408C9.76291 9.24147 8.95413 9.24397 8.4559 9.7422L6.08709 12.1108C5.58854 12.6094 5.5862 13.4186 6.07959 13.9203C6.58126 14.4136 7.39066 14.4113 7.88905 13.9128L9.23545 12.5664C9.82573 12.8224 10.4723 12.9085 11.1004 12.8252ZM14.9747 5.01012C13.8869 3.93896 12.1305 3.94397 11.0491 5.02544L8.89959 7.17495C9.52786 7.09165 10.1744 7.17776 10.7645 7.4336L12.1109 6.08722C12.6095 5.58868 13.4187 5.58634 13.9204 6.07972C14.4138 6.58139 14.4114 7.39078 13.9129 7.88916L11.5442 10.2579C11.046 10.7562 10.2372 10.7587 9.73556 10.2661C9.70305 10.2329 9.67258 10.1985 9.64429 10.1629C9.42924 10.0398 9.1498 10.0693 8.96632 10.2528L8.32274 10.8963C8.42105 11.0456 8.53529 11.1875 8.66532 11.3194C8.66782 11.3219 8.67032 11.3246 8.67298 11.3272C8.67548 11.3297 8.67798 11.3324 8.68048 11.3349C9.76822 12.406 11.5247 12.401 12.606 11.3196L14.9747 8.95094C16.056 7.86963 16.061 6.11332 14.9898 5.0256C14.9873 5.0231 14.9848 5.02044 14.9822 5.01794C14.9797 5.01528 14.9772 5.01278 14.9747 5.01012Z" fill="#1E2A3D"/>
<path d="M33.8182 3.86364V15.5H31.1818L26.9773 9.38636H26.9091V15.5H23.75V3.86364H26.4318L30.5682 9.95455H30.6591V3.86364H33.8182ZM39.5625 15.6591C38.6155 15.6591 37.8049 15.4716 37.1307 15.0966C36.4564 14.7178 35.9394 14.1913 35.5795 13.517C35.2197 12.839 35.0398 12.053 35.0398 11.1591C35.0398 10.2652 35.2197 9.48106 35.5795 8.80682C35.9394 8.12879 36.4564 7.60227 37.1307 7.22727C37.8049 6.84848 38.6155 6.65909 39.5625 6.65909C40.5095 6.65909 41.3201 6.84848 41.9943 7.22727C42.6686 7.60227 43.1856 8.12879 43.5455 8.80682C43.9053 9.48106 44.0852 10.2652 44.0852 11.1591C44.0852 12.053 43.9053 12.839 43.5455 13.517C43.1856 14.1913 42.6686 14.7178 41.9943 15.0966C41.3201 15.4716 40.5095 15.6591 39.5625 15.6591ZM39.5852 13.3409C39.8504 13.3409 40.0795 13.2519 40.2727 13.0739C40.4659 12.8958 40.6155 12.642 40.7216 12.3125C40.8277 11.983 40.8807 11.5909 40.8807 11.1364C40.8807 10.678 40.8277 10.286 40.7216 9.96023C40.6155 9.63068 40.4659 9.37689 40.2727 9.19886C40.0795 9.02083 39.8504 8.93182 39.5852 8.93182C39.3049 8.93182 39.0644 9.02083 38.8636 9.19886C38.6629 9.37689 38.5095 9.63068 38.4034 9.96023C38.2973 10.286 38.2443 10.678 38.2443 11.1364C38.2443 11.5909 38.2973 11.983 38.4034 12.3125C38.5095 12.642 38.6629 12.8958 38.8636 13.0739C39.0644 13.2519 39.3049 13.3409 39.5852 13.3409ZM50.5625 6.77273V9.04545H44.8125V6.77273H50.5625ZM45.9261 4.68182H49.0625V12.6932C49.0625 12.8144 49.0833 12.9167 49.125 13C49.1667 13.0795 49.2311 13.1402 49.3182 13.1818C49.4053 13.2197 49.517 13.2386 49.6534 13.2386C49.7481 13.2386 49.858 13.2273 49.983 13.2045C50.1117 13.1818 50.2064 13.1629 50.267 13.1477L50.7216 15.3523C50.5814 15.3939 50.3807 15.4451 50.1193 15.5057C49.8617 15.5663 49.5549 15.6061 49.1989 15.625C48.4792 15.6629 47.875 15.589 47.3864 15.4034C46.8977 15.214 46.5303 14.9167 46.2841 14.5114C46.0379 14.1061 45.9186 13.5985 45.9261 12.9886V4.68182ZM55.9304 15.6591C54.9986 15.6591 54.1955 15.4811 53.5213 15.125C52.8509 14.7652 52.3338 14.25 51.9702 13.5795C51.6103 12.9053 51.4304 12.0985 51.4304 11.1591C51.4304 10.2576 51.6122 9.4697 51.9759 8.79545C52.3395 8.12121 52.8527 7.59659 53.5156 7.22159C54.1785 6.84659 54.9607 6.65909 55.8622 6.65909C56.5213 6.65909 57.1179 6.76136 57.652 6.96591C58.1861 7.17045 58.6425 7.4678 59.0213 7.85795C59.4001 8.24432 59.6918 8.71402 59.8963 9.26705C60.1009 9.82008 60.2031 10.4432 60.2031 11.1364V11.8636H52.4077V10.1364H57.3168C57.313 9.88636 57.2486 9.66667 57.1236 9.47727C57.0024 9.28409 56.8376 9.13447 56.6293 9.02841C56.4247 8.91856 56.1918 8.86364 55.9304 8.86364C55.6766 8.86364 55.4437 8.91856 55.2315 9.02841C55.0194 9.13447 54.849 9.2822 54.7202 9.47159C54.5952 9.66098 54.5289 9.88258 54.5213 10.1364V12C54.5213 12.2803 54.58 12.5303 54.6974 12.75C54.8149 12.9697 54.9834 13.142 55.2031 13.267C55.4228 13.392 55.688 13.4545 55.9986 13.4545C56.2145 13.4545 56.4115 13.4242 56.5895 13.3636C56.7713 13.303 56.9266 13.2159 57.0554 13.1023C57.1842 12.9848 57.2789 12.8447 57.3395 12.6818H60.2031C60.1046 13.2879 59.8717 13.8144 59.5043 14.2614C59.1368 14.7045 58.6501 15.0492 58.044 15.2955C57.4418 15.5379 56.7372 15.6591 55.9304 15.6591ZM61.4375 15.5V3.86364H64.5739V8.29545H64.6193C64.733 8 64.8996 7.72917 65.1193 7.48295C65.339 7.23295 65.6117 7.03409 65.9375 6.88636C66.2633 6.73485 66.642 6.65909 67.0739 6.65909C67.6496 6.65909 68.197 6.8125 68.7159 7.11932C69.2386 7.42614 69.6629 7.90909 69.9886 8.56818C70.3182 9.22727 70.483 10.0833 70.483 11.1364C70.483 12.1439 70.3258 12.9792 70.0114 13.642C69.7008 14.3049 69.2841 14.7992 68.7614 15.125C68.2424 15.4508 67.6723 15.6136 67.0511 15.6136C66.642 15.6136 66.2765 15.5473 65.9545 15.4148C65.6364 15.2784 65.3636 15.0947 65.1364 14.8636C64.9129 14.6288 64.7405 14.3636 64.6193 14.0682H64.5511V15.5H61.4375ZM64.5057 11.1364C64.5057 11.5606 64.5606 11.928 64.6705 12.2386C64.7841 12.5455 64.9432 12.7841 65.1477 12.9545C65.3561 13.1212 65.6042 13.2045 65.892 13.2045C66.1799 13.2045 66.4242 13.1231 66.625 12.9602C66.8295 12.7936 66.9848 12.5568 67.0909 12.25C67.2008 11.9394 67.2557 11.5682 67.2557 11.1364C67.2557 10.7045 67.2008 10.3352 67.0909 10.0284C66.9848 9.7178 66.8295 9.48106 66.625 9.31818C66.4242 9.15151 66.1799 9.06818 65.892 9.06818C65.6042 9.06818 65.3561 9.15151 65.1477 9.31818C64.9432 9.48106 64.7841 9.7178 64.6705 10.0284C64.5606 10.3352 64.5057 10.7045 64.5057 11.1364ZM76 15.6591C75.053 15.6591 74.2424 15.4716 73.5682 15.0966C72.8939 14.7178 72.3769 14.1913 72.017 13.517C71.6572 12.839 71.4773 12.053 71.4773 11.1591C71.4773 10.2652 71.6572 9.48106 72.017 8.80682C72.3769 8.12879 72.8939 7.60227 73.5682 7.22727C74.2424 6.84848 75.053 6.65909 76 6.65909C76.947 6.65909 77.7576 6.84848 78.4318 7.22727C79.1061 7.60227 79.6231 8.12879 79.983 8.80682C80.3428 9.48106 80.5227 10.2652 80.5227 11.1591C80.5227 12.053 80.3428 12.839 79.983 13.517C79.6231 14.1913 79.1061 14.7178 78.4318 15.0966C77.7576 15.4716 76.947 15.6591 76 15.6591ZM76.0227 13.3409C76.2879 13.3409 76.517 13.2519 76.7102 13.0739C76.9034 12.8958 77.053 12.642 77.1591 12.3125C77.2652 11.983 77.3182 11.5909 77.3182 11.1364C77.3182 10.678 77.2652 10.286 77.1591 9.96023C77.053 9.63068 76.9034 9.37689 76.7102 9.19886C76.517 9.02083 76.2879 8.93182 76.0227 8.93182C75.7424 8.93182 75.5019 9.02083 75.3011 9.19886C75.1004 9.37689 74.947 9.63068 74.8409 9.96023C74.7348 10.286 74.6818 10.678 74.6818 11.1364C74.6818 11.5909 74.7348 11.983 74.8409 12.3125C74.947 12.642 75.1004 12.8958 75.3011 13.0739C75.5019 13.2519 75.7424 13.3409 76.0227 13.3409ZM86 15.6591C85.053 15.6591 84.2424 15.4716 83.5682 15.0966C82.8939 14.7178 82.3769 14.1913 82.017 13.517C81.6572 12.839 81.4773 12.053 81.4773 11.1591C81.4773 10.2652 81.6572 9.48106 82.017 8.80682C82.3769 8.12879 82.8939 7.60227 83.5682 7.22727C84.2424 6.84848 85.053 6.65909 86 6.65909C86.947 6.65909 87.7576 6.84848 88.4318 7.22727C89.1061 7.60227 89.6231 8.12879 89.983 8.80682C90.3428 9.48106 90.5227 10.2652 90.5227 11.1591C90.5227 12.053 90.3428 12.839 89.983 13.517C89.6231 14.1913 89.1061 14.7178 88.4318 15.0966C87.7576 15.4716 86.947 15.6591 86 15.6591ZM86.0227 13.3409C86.2879 13.3409 86.517 13.2519 86.7102 13.0739C86.9034 12.8958 87.053 12.642 87.1591 12.3125C87.2652 11.983 87.3182 11.5909 87.3182 11.1364C87.3182 10.678 87.2652 10.286 87.1591 9.96023C87.053 9.63068 86.9034 9.37689 86.7102 9.19886C86.517 9.02083 86.2879 8.93182 86.0227 8.93182C85.7424 8.93182 85.5019 9.02083 85.3011 9.19886C85.1004 9.37689 84.947 9.63068 84.8409 9.96023C84.7348 10.286 84.6818 10.678 84.6818 11.1364C84.6818 11.5909 84.7348 11.983 84.8409 12.3125C84.947 12.642 85.1004 12.8958 85.3011 13.0739C85.5019 13.2519 85.7424 13.3409 86.0227 13.3409ZM94.6136 13.4318L94.6364 9.70455H95.0455L97.1591 6.77273H100.682L97.1364 11.3409H96.25L94.6136 13.4318ZM91.7955 15.5V3.86364H94.9318V15.5H91.7955ZM97.1818 15.5L95.1818 12.0455L97.2273 9.81818L100.773 15.5H97.1818ZM103.203 15.6818C102.764 15.6818 102.387 15.5284 102.072 15.2216C101.762 14.911 101.608 14.5341 101.612 14.0909C101.608 13.6591 101.762 13.2898 102.072 12.983C102.387 12.6761 102.764 12.5227 103.203 12.5227C103.62 12.5227 103.987 12.6761 104.305 12.983C104.627 13.2898 104.79 13.6591 104.794 14.0909C104.79 14.3864 104.713 14.6553 104.561 14.8977C104.413 15.1364 104.22 15.3277 103.982 15.4716C103.743 15.6117 103.483 15.6818 103.203 15.6818ZM109.635 3.86364V15.5H106.499V3.86364H109.635ZM111.233 15.5V6.77273H114.369V15.5H111.233ZM112.801 5.86364C112.377 5.86364 112.013 5.72348 111.71 5.44318C111.407 5.16288 111.256 4.82576 111.256 4.43182C111.256 4.03788 111.407 3.70076 111.71 3.42045C112.013 3.14015 112.377 3 112.801 3C113.229 3 113.593 3.14015 113.892 3.42045C114.195 3.70076 114.347 4.03788 114.347 4.43182C114.347 4.82576 114.195 5.16288 113.892 5.44318C113.593 5.72348 113.229 5.86364 112.801 5.86364ZM119.104 10.5909V15.5H115.967V6.77273H118.945V8.43182H119.036C119.225 7.87879 119.558 7.44508 120.036 7.13068C120.517 6.81629 121.077 6.65909 121.717 6.65909C122.335 6.65909 122.871 6.80114 123.325 7.08523C123.784 7.36553 124.138 7.75189 124.388 8.24432C124.642 8.73674 124.767 9.29924 124.763 9.93182V15.5H121.626V10.5909C121.63 10.1591 121.52 9.82008 121.297 9.57386C121.077 9.32765 120.77 9.20455 120.376 9.20455C120.119 9.20455 119.893 9.26136 119.7 9.375C119.511 9.48485 119.365 9.64394 119.263 9.85227C119.161 10.0568 119.107 10.303 119.104 10.5909ZM129.129 13.4318L129.152 9.70455H129.561L131.675 6.77273H135.197L131.652 11.3409H130.766L129.129 13.4318ZM126.311 15.5V3.86364H129.447V15.5H126.311ZM131.697 15.5L129.697 12.0455L131.743 9.81818L135.288 15.5H131.697Z" fill="#E2D610"/>
</svg>
